# xmcd CD database file
#
# Track frame offsets:
#	150
#	14319
#	28245
#	42093
#	54424
#	71613
#	88426
#	100236
#	117899
#	134249
#	158463
#	176119
#	189593
#	208141
#	219415
#	234353
#	251444
#	269261
#
# Disc length: 3764 seconds
#
# Revision: 2
# Processed by: cddbd v1.5.1PL2 Copyright (c) Steve Scherf et al.
# Submitted via: CDex 1.51
#
DISCID=050eb212
DTITLE=Georges Moustaki - Best of
DYEAR=2004
DGENRE=Jazz
TTITLE0=Jou Jou
TTITLE1=Nos Voulions
TTITLE2=Mon Corps
TTITLE3=HaitiCherie
TTITLE4=Un Jour Tu Es Parti
TTITLE5=Une Cousine
TTITLE6=Venez Danser
TTITLE7=L'Espagne Au Coeur
TTITLE8=Idee Folie
TTITLE9=L'Amour A la Musique
TTITLE10=Le Facteur
TTITLE11=Sinfoneiro
TTITLE12=Le Temps De Vivre
TTITLE13=Sarah
TTITLE14=Ma Solitude
TTITLE15=Pecheur
TTITLE16=Il Y Avait Un Jardin
TTITLE17=LaMarche de Sacco et Vanzetti
EXTD=YEAR: 2004
EXTT0=
EXTT1=
EXTT2=
EXTT3=
EXTT4=
EXTT5=
EXTT6=
EXTT7=
EXTT8=
EXTT9=
EXTT10=
EXTT11=
EXTT12=
EXTT13=
EXTT14=
EXTT15=
EXTT16=
EXTT17=
PLAYORDER=
